# xmcd
#
# Track frame offsets: 
#        183
#        20773
#        33685
#        47328
#        59945
#        72750
#        82848
#        95340
#        107300
#        120920
#        135118
#        147475
#        162350
#        170855
#        182215
#        193170
#        207395
#        221680
#        232218
#        243455
#        256278
#        267493
#        280763
#        292393
#        302470
#        314513
#
# Disc length: 4372 seconds
#
# Revision: 0
# Processed by: cddbd v1.5.1PL0 Copyright (c) Steve Scherf et al.
# Submitted via: ExactAudioCopy v0.95a2
#
DISCID=9111121a
DTITLE=Lowell Fulson - Swingin' Party
DYEAR=1991
DGENRE=Blues
TTITLE0=I Want To Know
TTITLE1=Lonely Hours
TTITLE2=Lovin' You
TTITLE3=It's A Long Time
TTITLE4=Rollin'
TTITLE5=Love 'N Things
TTITLE6=Swingin' Party
TTITLE7=Took A Long Time
TTITLE8=Hung Down Head
TTITLE9=Someday Baby
TTITLE10=That's Alright
TTITLE11=I Want To Make Love To You
TTITLE12=Rock This Morning
TTITLE13=Rock 'Em Dead
TTITLE14=Coming Home Someday
TTITLE15=Have You Changed Your Mind
TTITLE16=Worry, Worry
TTITLE17=KC Bound
TTITLE18=So Many Tears
TTITLE19=I'm Glad You Reconsidered
TTITLE20=Blue Shadows
TTITLE21=Payday Blues
TTITLE22=Why Don't You Write Me
TTITLE23=Shed No Tears
TTITLE24=Trouble With The Blues
TTITLE25=Blue Soul
EXTD=
EXTT0=
EXTT1=
EXTT2=
EXTT3=
EXTT4=
EXTT5=
EXTT6=
EXTT7=
EXTT8=
EXTT9=
EXTT10=
EXTT11=
EXTT12=
EXTT13=
EXTT14=
EXTT15=
EXTT16=
EXTT17=
EXTT18=
EXTT19=
EXTT20=
EXTT21=
EXTT22=
EXTT23=
EXTT24=
EXTT25=
PLAYORDER=
